<svg width="151" height="28" viewBox="0 0 151 28" fill="none" xmlns="http://www.w3.org/2000/svg">
<rect width="28" height="28" rx="7" fill="#1254D6"/>
<path d="M13.8554 22.909C12.3152 22.909 10.9471 22.6223 9.75106 22.0488C8.57137 21.459 7.63745 20.5824 6.9493 19.4191C6.27753 18.2558 5.94165 16.7976 5.94165 15.0444C5.94165 13.6354 6.14646 12.3328 6.55607 11.1367C6.98207 9.92426 7.5883 8.86746 8.37475 7.96631C9.1776 7.06516 10.1607 6.36062 11.324 5.8527C12.4873 5.34478 13.8062 5.09082 15.2808 5.09082C16.2311 5.09082 17.1405 5.2137 18.0089 5.45947C18.8772 5.70524 19.6391 6.0657 20.2945 6.54085C20.5894 6.75385 20.7697 7.00781 20.8352 7.30273C20.9171 7.58127 20.9171 7.85981 20.8352 8.13834C20.7533 8.41688 20.614 8.66265 20.4174 8.87565C20.2372 9.07226 20.016 9.19515 19.7538 9.2443C19.4917 9.27707 19.2213 9.20334 18.9428 9.02311C18.3038 8.59711 17.6812 8.30219 17.0749 8.13834C16.4687 7.9745 15.8379 7.89258 15.1825 7.89258C13.9209 7.89258 12.8477 8.20388 11.963 8.82649C11.0946 9.43272 10.431 10.2683 9.97225 11.3333C9.51348 12.3983 9.2841 13.6026 9.2841 14.9461C9.2841 16.1586 9.46433 17.1498 9.82479 17.9199C10.2016 18.6736 10.7505 19.2307 11.4714 19.5911C12.2087 19.9352 13.1017 20.1072 14.1503 20.1072C14.7565 20.1072 15.3382 20.0335 15.8953 19.8861C16.4523 19.7386 17.0258 19.4928 17.6156 19.1488C17.9433 18.9521 18.2382 18.8784 18.5004 18.9276C18.7789 18.9603 19.0083 19.075 19.1885 19.2716C19.3688 19.4683 19.4835 19.7058 19.5326 19.9844C19.5982 20.2465 19.5736 20.5169 19.4589 20.7954C19.3606 21.0576 19.164 21.2869 18.869 21.4835C18.1481 21.9587 17.3371 22.3192 16.4359 22.5649C15.5348 22.7943 14.6746 22.909 13.8554 22.909Z" fill="white"/>
<path d="M43.0062 21.4918C41.6008 21.4918 40.3677 21.1818 39.3068 20.5618C38.2596 19.9418 37.4467 19.0737 36.868 17.9577C36.2893 16.8279 36 15.5052 36 13.9896C36 12.846 36.1653 11.8195 36.496 10.9102C36.8267 9.98704 37.2951 9.20169 37.9014 8.55411C38.5214 7.89276 39.2585 7.38986 40.1128 7.04541C40.9808 6.68717 41.9453 6.50806 43.0062 6.50806C44.4253 6.50806 45.6585 6.81807 46.7056 7.43808C47.7528 8.04432 48.5657 8.90546 49.1444 10.0215C49.7231 11.1375 50.0124 12.4533 50.0124 13.9689C50.0124 15.1125 49.8471 16.1459 49.5164 17.069C49.1857 17.9922 48.7104 18.7844 48.0903 19.4458C47.4841 20.1071 46.747 20.6169 45.8789 20.9751C45.0247 21.3196 44.0671 21.4918 43.0062 21.4918ZM43.0062 19.2184C43.9018 19.2184 44.6596 19.0117 45.2796 18.5984C45.9134 18.1851 46.3956 17.5857 46.7263 16.8003C47.0708 16.015 47.243 15.0781 47.243 13.9896C47.243 12.3362 46.871 11.0549 46.127 10.1455C45.3967 9.23613 44.3565 8.78145 43.0062 8.78145C42.1244 8.78145 41.3666 8.98813 40.7328 9.40147C40.099 9.80104 39.6099 10.3935 39.2654 11.1789C38.9347 11.9504 38.7694 12.8873 38.7694 13.9896C38.7694 15.6292 39.1414 16.9106 39.8854 17.8337C40.6295 18.7568 41.6697 19.2184 43.0062 19.2184Z" fill="#1254D6"/>
<path d="M53.5291 21.4505C53.1157 21.4505 52.7988 21.3403 52.5784 21.1198C52.3579 20.8856 52.2477 20.5549 52.2477 20.1278V12.3156C52.2477 11.8884 52.3579 11.5646 52.5784 11.3442C52.7988 11.1237 53.1088 11.0135 53.5084 11.0135C53.908 11.0135 54.218 11.1237 54.4384 11.3442C54.6589 11.5646 54.7691 11.8884 54.7691 12.3156V13.7209L54.5417 13.2042C54.8449 12.474 55.3133 11.9229 55.9471 11.5509C56.5947 11.1651 57.3249 10.9722 58.1379 10.9722C58.9508 10.9722 59.619 11.1237 60.1426 11.4269C60.6661 11.73 61.0588 12.1915 61.3206 12.8116C61.5824 13.4178 61.7133 14.1894 61.7133 15.1263V20.1278C61.7133 20.5549 61.6031 20.8856 61.3826 21.1198C61.1622 21.3403 60.8453 21.4505 60.4319 21.4505C60.0186 21.4505 59.6948 21.3403 59.4606 21.1198C59.2401 20.8856 59.1299 20.5549 59.1299 20.1278V15.2503C59.1299 14.4649 58.9783 13.8932 58.6752 13.5349C58.3859 13.1767 57.9312 12.9976 57.3112 12.9976C56.5534 12.9976 55.9471 13.2387 55.4924 13.7209C55.0515 14.1894 54.8311 14.8163 54.8311 15.6016V20.1278C54.8311 21.0096 54.3971 21.4505 53.5291 21.4505Z" fill="#1254D6"/>
<path d="M69.1114 21.4918C67.9678 21.4918 66.9826 21.2782 66.1559 20.8511C65.3292 20.424 64.6886 19.8178 64.2339 19.0324C63.793 18.2471 63.5725 17.317 63.5725 16.2423C63.5725 15.1952 63.7861 14.2789 64.2132 13.4936C64.6541 12.7082 65.2535 12.0951 66.0113 11.6542C66.7828 11.1995 67.6578 10.9722 68.636 10.9722C69.3525 10.9722 69.9932 11.0893 70.5581 11.3235C71.1367 11.5578 71.6259 11.8953 72.0254 12.3362C72.4388 12.7771 72.7488 13.3145 72.9555 13.9483C73.1759 14.5683 73.2861 15.271 73.2861 16.0563C73.2861 16.3043 73.1966 16.4972 73.0175 16.635C72.8521 16.759 72.611 16.821 72.2941 16.821H65.6599V15.333H71.4674L71.1367 15.643C71.1367 15.0092 71.0403 14.4787 70.8474 14.0516C70.6683 13.6245 70.3996 13.3007 70.0414 13.0802C69.6969 12.846 69.2629 12.7289 68.7393 12.7289C68.1607 12.7289 67.6646 12.8667 67.2513 13.1422C66.8517 13.404 66.5417 13.7829 66.3213 14.2789C66.1146 14.7612 66.0113 15.3399 66.0113 16.015V16.1597C66.0113 17.2895 66.273 18.1368 66.7966 18.7017C67.334 19.2529 68.1193 19.5284 69.1527 19.5284C69.5109 19.5284 69.9105 19.4871 70.3514 19.4044C70.8061 19.308 71.2332 19.1495 71.6328 18.9291C71.9221 18.7637 72.177 18.6948 72.3974 18.7224C72.6179 18.7362 72.7901 18.812 72.9141 18.9497C73.0519 19.0875 73.1346 19.2597 73.1621 19.4664C73.1897 19.6593 73.1484 19.8591 73.0381 20.0658C72.9417 20.2724 72.7695 20.4516 72.5214 20.6031C72.0392 20.9062 71.4812 21.1336 70.8474 21.2851C70.2274 21.4229 69.6487 21.4918 69.1114 21.4918Z" fill="#1254D6"/>
<path d="M82.1522 21.4918C80.6366 21.4918 79.3346 21.1887 78.2461 20.5825C77.1714 19.9624 76.3447 19.0944 75.766 17.9784C75.1874 16.8486 74.898 15.519 74.898 13.9896C74.898 12.846 75.0634 11.8195 75.394 10.9102C75.7247 9.98704 76.2001 9.20169 76.8201 8.55411C77.4401 7.89276 78.1979 7.38986 79.0935 7.04541C80.0028 6.68717 81.0224 6.50806 82.1522 6.50806C82.91 6.50806 83.654 6.6045 84.3843 6.7974C85.1145 6.99029 85.7552 7.26586 86.3063 7.62409C86.5957 7.8032 86.7886 8.02366 86.885 8.28544C86.9815 8.53345 87.0021 8.78145 86.947 9.02946C86.8919 9.26369 86.7748 9.46347 86.5957 9.62881C86.4303 9.79415 86.2168 9.8906 85.955 9.91815C85.707 9.93193 85.4314 9.84237 85.1283 9.64948C84.7012 9.37392 84.2396 9.17413 83.7436 9.05013C83.2476 8.92612 82.7447 8.86412 82.2349 8.86412C81.2566 8.86412 80.43 9.06391 79.7548 9.46347C79.0797 9.86304 78.5699 10.4417 78.2254 11.1995C77.881 11.9573 77.7088 12.8873 77.7088 13.9896C77.7088 15.0781 77.881 16.0081 78.2254 16.7797C78.5699 17.5513 79.0797 18.1368 79.7548 18.5364C80.43 18.936 81.2566 19.1357 82.2349 19.1357C82.7585 19.1357 83.2751 19.0737 83.7849 18.9497C84.2947 18.812 84.777 18.6053 85.2316 18.3297C85.5348 18.1506 85.8034 18.0748 86.0377 18.1024C86.2857 18.1162 86.4923 18.1988 86.6577 18.3504C86.823 18.5019 86.9332 18.6948 86.9884 18.9291C87.0435 19.1495 87.0297 19.3838 86.947 19.6318C86.8644 19.866 86.699 20.0727 86.451 20.2518C85.8999 20.6513 85.2385 20.9614 84.467 21.1818C83.7092 21.3885 82.9376 21.4918 82.1522 21.4918Z" fill="#1254D6"/>
<path d="M92.8482 21.4918C91.801 21.4918 90.8917 21.2782 90.1201 20.8511C89.3485 20.424 88.7492 19.8178 88.322 19.0324C87.8949 18.2333 87.6814 17.2964 87.6814 16.2217C87.6814 15.4088 87.7985 14.6854 88.0327 14.0516C88.2807 13.404 88.632 12.8529 89.0867 12.3982C89.5414 11.9298 90.0856 11.5784 90.7194 11.3442C91.3532 11.0962 92.0628 10.9722 92.8482 10.9722C93.8953 10.9722 94.8047 11.1857 95.5762 11.6129C96.3478 12.04 96.9472 12.6462 97.3743 13.4316C97.8014 14.2169 98.015 15.147 98.015 16.2217C98.015 17.0346 97.891 17.7648 97.643 18.4124C97.4087 19.06 97.0643 19.618 96.6096 20.0864C96.1549 20.5411 95.6107 20.8925 94.9769 21.1405C94.3431 21.3747 93.6335 21.4918 92.8482 21.4918ZM92.8482 19.5284C93.358 19.5284 93.8058 19.4044 94.1915 19.1564C94.5773 18.9084 94.8736 18.5433 95.0802 18.061C95.3007 17.565 95.4109 16.9519 95.4109 16.2217C95.4109 15.1194 95.1767 14.2996 94.7082 13.7623C94.2398 13.2111 93.6197 12.9356 92.8482 12.9356C92.3384 12.9356 91.8906 13.0596 91.5048 13.3076C91.119 13.5418 90.8159 13.9069 90.5954 14.4029C90.3888 14.8852 90.2854 15.4914 90.2854 16.2217C90.2854 17.3101 90.5197 18.1368 90.9881 18.7017C91.4566 19.2529 92.0766 19.5284 92.8482 19.5284Z" fill="#1254D6"/>
<path d="M101.222 21.4505C100.809 21.4505 100.492 21.3403 100.271 21.1198C100.051 20.8856 99.9406 20.5549 99.9406 20.1278V12.3156C99.9406 11.8884 100.051 11.5646 100.271 11.3442C100.492 11.1237 100.802 11.0135 101.201 11.0135C101.601 11.0135 101.911 11.1237 102.131 11.3442C102.352 11.5646 102.462 11.8884 102.462 12.3156V13.7209L102.235 13.2042C102.538 12.474 103.006 11.9229 103.64 11.5509C104.288 11.1651 105.018 10.9722 105.831 10.9722C106.644 10.9722 107.312 11.1237 107.835 11.4269C108.359 11.73 108.752 12.1915 109.014 12.8116C109.275 13.4178 109.406 14.1894 109.406 15.1263V20.1278C109.406 20.5549 109.296 20.8856 109.076 21.1198C108.855 21.3403 108.538 21.4505 108.125 21.4505C107.711 21.4505 107.388 21.3403 107.153 21.1198C106.933 20.8856 106.823 20.5549 106.823 20.1278V15.2503C106.823 14.4649 106.671 13.8932 106.368 13.5349C106.079 13.1767 105.624 12.9976 105.004 12.9976C104.246 12.9976 103.64 13.2387 103.185 13.7209C102.744 14.1894 102.524 14.8163 102.524 15.6016V20.1278C102.524 21.0096 102.09 21.4505 101.222 21.4505Z" fill="#1254D6"/>
<path d="M113.105 21.4505C112.691 21.4505 112.375 21.3403 112.154 21.1198C111.934 20.8856 111.823 20.5549 111.823 20.1278V12.3156C111.823 11.8884 111.934 11.5646 112.154 11.3442C112.375 11.1237 112.685 11.0135 113.084 11.0135C113.484 11.0135 113.794 11.1237 114.014 11.3442C114.235 11.5646 114.345 11.8884 114.345 12.3156V13.7209L114.118 13.2042C114.421 12.474 114.889 11.9229 115.523 11.5509C116.17 11.1651 116.901 10.9722 117.714 10.9722C118.527 10.9722 119.195 11.1237 119.718 11.4269C120.242 11.73 120.635 12.1915 120.896 12.8116C121.158 13.4178 121.289 14.1894 121.289 15.1263V20.1278C121.289 20.5549 121.179 20.8856 120.958 21.1198C120.738 21.3403 120.421 21.4505 120.008 21.4505C119.594 21.4505 119.271 21.3403 119.036 21.1198C118.816 20.8856 118.706 20.5549 118.706 20.1278V15.2503C118.706 14.4649 118.554 13.8932 118.251 13.5349C117.962 13.1767 117.507 12.9976 116.887 12.9976C116.129 12.9976 115.523 13.2387 115.068 13.7209C114.627 14.1894 114.407 14.8163 114.407 15.6016V20.1278C114.407 21.0096 113.973 21.4505 113.105 21.4505Z" fill="#1254D6"/>
<path d="M128.687 21.4918C127.544 21.4918 126.558 21.2782 125.732 20.8511C124.905 20.424 124.264 19.8178 123.81 19.0324C123.369 18.2471 123.148 17.317 123.148 16.2423C123.148 15.1952 123.362 14.2789 123.789 13.4936C124.23 12.7082 124.829 12.0951 125.587 11.6542C126.359 11.1995 127.234 10.9722 128.212 10.9722C128.928 10.9722 129.569 11.0893 130.134 11.3235C130.713 11.5578 131.202 11.8953 131.601 12.3362C132.015 12.7771 132.325 13.3145 132.531 13.9483C132.752 14.5683 132.862 15.271 132.862 16.0563C132.862 16.3043 132.772 16.4972 132.593 16.635C132.428 16.759 132.187 16.821 131.87 16.821H125.236V15.333H131.043L130.713 15.643C130.713 15.0092 130.616 14.4787 130.423 14.0516C130.244 13.6245 129.975 13.3007 129.617 13.0802C129.273 12.846 128.839 12.7289 128.315 12.7289C127.736 12.7289 127.24 12.8667 126.827 13.1422C126.427 13.404 126.117 13.7829 125.897 14.2789C125.69 14.7612 125.587 15.3399 125.587 16.015V16.1597C125.587 17.2895 125.849 18.1368 126.372 18.7017C126.91 19.2529 127.695 19.5284 128.728 19.5284C129.087 19.5284 129.486 19.4871 129.927 19.4044C130.382 19.308 130.809 19.1495 131.209 18.9291C131.498 18.7637 131.753 18.6948 131.973 18.7224C132.194 18.7362 132.366 18.812 132.49 18.9497C132.628 19.0875 132.71 19.2597 132.738 19.4664C132.765 19.6593 132.724 19.8591 132.614 20.0658C132.517 20.2724 132.345 20.4516 132.097 20.6031C131.615 20.9062 131.057 21.1336 130.423 21.2851C129.803 21.4229 129.224 21.4918 128.687 21.4918Z" fill="#1254D6"/>
<path d="M139.372 21.4918C138.311 21.4918 137.388 21.2782 136.603 20.8511C135.817 20.4102 135.211 19.7902 134.784 18.9911C134.357 18.1919 134.143 17.255 134.143 16.1803C134.143 15.3674 134.26 14.6441 134.494 14.0103C134.742 13.3627 135.094 12.8185 135.548 12.3776C136.003 11.9229 136.554 11.5784 137.202 11.3442C137.849 11.0962 138.573 10.9722 139.372 10.9722C139.827 10.9722 140.316 11.0342 140.839 11.1582C141.377 11.2822 141.88 11.4889 142.348 11.7782C142.568 11.916 142.713 12.0813 142.782 12.2742C142.851 12.4671 142.865 12.6669 142.823 12.8736C142.782 13.0665 142.692 13.2387 142.555 13.3902C142.431 13.528 142.272 13.6176 142.079 13.6589C141.886 13.6865 141.673 13.6383 141.439 13.5143C141.136 13.3351 140.826 13.2042 140.509 13.1216C140.192 13.0251 139.889 12.9769 139.599 12.9769C139.145 12.9769 138.745 13.0527 138.401 13.2042C138.056 13.342 137.76 13.5487 137.512 13.8243C137.278 14.086 137.099 14.4167 136.975 14.8163C136.851 15.2159 136.789 15.6774 136.789 16.201C136.789 17.2206 137.03 18.0266 137.512 18.6191C138.008 19.1977 138.704 19.4871 139.599 19.4871C139.889 19.4871 140.185 19.4458 140.488 19.3631C140.805 19.2804 141.122 19.1495 141.439 18.9704C141.673 18.8464 141.88 18.8051 142.059 18.8464C142.252 18.8877 142.41 18.9842 142.534 19.1357C142.658 19.2735 142.734 19.4458 142.761 19.6524C142.789 19.8453 142.761 20.0382 142.679 20.2311C142.61 20.424 142.472 20.5825 142.265 20.7065C141.811 20.982 141.328 21.1818 140.819 21.3058C140.309 21.4298 139.827 21.4918 139.372 21.4918Z" fill="#1254D6"/>
<path d="M148.913 21.4918C148.017 21.4918 147.266 21.3403 146.66 21.0371C146.067 20.734 145.627 20.2931 145.337 19.7144C145.048 19.122 144.903 18.3917 144.903 17.5237V13.1216H143.828C143.498 13.1216 143.243 13.0389 143.064 12.8736C142.885 12.6945 142.795 12.4533 142.795 12.1502C142.795 11.8333 142.885 11.5922 143.064 11.4269C143.243 11.2615 143.498 11.1789 143.828 11.1789H144.903V9.29813C144.903 8.87101 145.013 8.54723 145.234 8.32677C145.468 8.10632 145.792 7.9961 146.205 7.9961C146.619 7.9961 146.935 8.10632 147.156 8.32677C147.376 8.54723 147.487 8.87101 147.487 9.29813V11.1789H149.677C150.008 11.1789 150.263 11.2615 150.442 11.4269C150.621 11.5922 150.711 11.8333 150.711 12.1502C150.711 12.4533 150.621 12.6945 150.442 12.8736C150.263 13.0389 150.008 13.1216 149.677 13.1216H147.487V17.379C147.487 18.0404 147.631 18.5364 147.921 18.8671C148.21 19.1977 148.678 19.3631 149.326 19.3631C149.56 19.3631 149.767 19.3424 149.946 19.3011C150.125 19.2597 150.284 19.2322 150.421 19.2184C150.587 19.2046 150.724 19.2597 150.835 19.3838C150.945 19.494 151 19.7282 151 20.0864C151 20.362 150.952 20.61 150.855 20.8305C150.773 21.0371 150.614 21.1818 150.38 21.2645C150.201 21.3196 149.967 21.3678 149.677 21.4091C149.388 21.4643 149.133 21.4918 148.913 21.4918Z" fill="#1254D6"/>
</svg>
